<mxfile host="app.diagrams.net" agent="Mozilla/5.0 (Windows NT 10.0; Win64; x64) AppleWebKit/537.36 (KHTML, like Gecko) Chrome/130.0.0.0 Safari/537.36" version="24.8.4">
  <diagram name="Page-1" id="97NKQtQDRiehBwWLnDXN">
    <mxGraphModel dx="3388" dy="556" grid="1" gridSize="10" guides="1" tooltips="1" connect="1" arrows="1" fold="1" page="1" pageScale="1" pageWidth="1169" pageHeight="827" math="0" shadow="0">
      <root>
        <mxCell id="0" />
        <mxCell id="1" parent="0" />
        <mxCell id="UVg8xwLe7CxSn3VC2-VT-21" style="edgeStyle=orthogonalEdgeStyle;rounded=0;orthogonalLoop=1;jettySize=auto;html=1;entryX=0.5;entryY=1;entryDx=0;entryDy=0;exitX=0.5;exitY=0;exitDx=0;exitDy=0;" parent="1" source="UVg8xwLe7CxSn3VC2-VT-1" target="UVg8xwLe7CxSn3VC2-VT-15" edge="1">
          <mxGeometry relative="1" as="geometry">
            <Array as="points">
              <mxPoint x="-2070" y="266.25" />
              <mxPoint x="-2070" y="266.25" />
            </Array>
          </mxGeometry>
        </mxCell>
        <mxCell id="UVg8xwLe7CxSn3VC2-VT-22" style="edgeStyle=orthogonalEdgeStyle;rounded=0;orthogonalLoop=1;jettySize=auto;html=1;entryX=0.5;entryY=1;entryDx=0;entryDy=0;" parent="1" source="UVg8xwLe7CxSn3VC2-VT-1" target="UVg8xwLe7CxSn3VC2-VT-20" edge="1">
          <mxGeometry relative="1" as="geometry">
            <Array as="points">
              <mxPoint x="-2070" y="246.25" />
              <mxPoint x="-2200" y="246.25" />
            </Array>
          </mxGeometry>
        </mxCell>
        <mxCell id="UVg8xwLe7CxSn3VC2-VT-23" style="edgeStyle=orthogonalEdgeStyle;rounded=0;orthogonalLoop=1;jettySize=auto;html=1;entryX=0.5;entryY=1;entryDx=0;entryDy=0;" parent="1" source="UVg8xwLe7CxSn3VC2-VT-1" target="UVg8xwLe7CxSn3VC2-VT-17" edge="1">
          <mxGeometry relative="1" as="geometry">
            <Array as="points">
              <mxPoint x="-2070" y="246.25" />
              <mxPoint x="-1930" y="246.25" />
            </Array>
          </mxGeometry>
        </mxCell>
        <mxCell id="UVg8xwLe7CxSn3VC2-VT-1" value="Add user" style="html=1;dashed=0;whiteSpace=wrap;fillColor=#d5e8d4;strokeColor=#82b366;" parent="1" vertex="1">
          <mxGeometry x="-2120" y="286.25" width="100" height="50" as="geometry" />
        </mxCell>
        <mxCell id="UVg8xwLe7CxSn3VC2-VT-32" value="" style="edgeStyle=orthogonalEdgeStyle;rounded=0;orthogonalLoop=1;jettySize=auto;html=1;exitX=0.5;exitY=0;exitDx=0;exitDy=0;" parent="1" source="UVg8xwLe7CxSn3VC2-VT-47" target="UVg8xwLe7CxSn3VC2-VT-3" edge="1">
          <mxGeometry relative="1" as="geometry" />
        </mxCell>
        <mxCell id="UVg8xwLe7CxSn3VC2-VT-53" value="" style="edgeStyle=orthogonalEdgeStyle;rounded=0;orthogonalLoop=1;jettySize=auto;html=1;" parent="1" source="UVg8xwLe7CxSn3VC2-VT-2" target="UVg8xwLe7CxSn3VC2-VT-52" edge="1">
          <mxGeometry relative="1" as="geometry" />
        </mxCell>
        <mxCell id="UVg8xwLe7CxSn3VC2-VT-2" value="ApproveIt" style="html=1;dashed=0;whiteSpace=wrap;shape=mxgraph.dfd.loop;fillColor=#dae8fc;strokeColor=#6c8ebf;fontStyle=1" parent="1" vertex="1">
          <mxGeometry x="-1385" y="687.5" width="80" height="30" as="geometry" />
        </mxCell>
        <mxCell id="UVg8xwLe7CxSn3VC2-VT-44" value="" style="edgeStyle=orthogonalEdgeStyle;rounded=0;orthogonalLoop=1;jettySize=auto;html=1;" parent="1" source="UVg8xwLe7CxSn3VC2-VT-3" target="UVg8xwLe7CxSn3VC2-VT-4" edge="1">
          <mxGeometry relative="1" as="geometry" />
        </mxCell>
        <mxCell id="UVg8xwLe7CxSn3VC2-VT-45" style="edgeStyle=orthogonalEdgeStyle;rounded=0;orthogonalLoop=1;jettySize=auto;html=1;entryX=0.5;entryY=1;entryDx=0;entryDy=0;" parent="1" source="UVg8xwLe7CxSn3VC2-VT-3" target="UVg8xwLe7CxSn3VC2-VT-1" edge="1">
          <mxGeometry relative="1" as="geometry">
            <Array as="points">
              <mxPoint x="-1675" y="370" />
              <mxPoint x="-2070" y="370" />
            </Array>
          </mxGeometry>
        </mxCell>
        <mxCell id="UVg8xwLe7CxSn3VC2-VT-46" style="edgeStyle=orthogonalEdgeStyle;rounded=0;orthogonalLoop=1;jettySize=auto;html=1;entryX=0.5;entryY=1;entryDx=0;entryDy=0;exitX=0.5;exitY=0;exitDx=0;exitDy=0;" parent="1" source="UVg8xwLe7CxSn3VC2-VT-47" target="UVg8xwLe7CxSn3VC2-VT-11" edge="1">
          <mxGeometry relative="1" as="geometry">
            <Array as="points">
              <mxPoint x="-1675" y="457.5" />
              <mxPoint x="-1310" y="457.5" />
            </Array>
          </mxGeometry>
        </mxCell>
        <mxCell id="UVg8xwLe7CxSn3VC2-VT-3" value="Add new approval flow" style="html=1;dashed=0;whiteSpace=wrap;fillColor=#d5e8d4;strokeColor=#82b366;" parent="1" vertex="1">
          <mxGeometry x="-1725" y="381.5" width="100" height="50" as="geometry" />
        </mxCell>
        <mxCell id="UVg8xwLe7CxSn3VC2-VT-29" value="" style="edgeStyle=orthogonalEdgeStyle;rounded=0;orthogonalLoop=1;jettySize=auto;html=1;" parent="1" source="UVg8xwLe7CxSn3VC2-VT-4" target="UVg8xwLe7CxSn3VC2-VT-28" edge="1">
          <mxGeometry relative="1" as="geometry">
            <Array as="points">
              <mxPoint x="-1675" y="247.5" />
              <mxPoint x="-1750" y="247.5" />
            </Array>
          </mxGeometry>
        </mxCell>
        <mxCell id="UVg8xwLe7CxSn3VC2-VT-31" style="edgeStyle=orthogonalEdgeStyle;rounded=0;orthogonalLoop=1;jettySize=auto;html=1;entryX=0.5;entryY=1;entryDx=0;entryDy=0;" parent="1" source="UVg8xwLe7CxSn3VC2-VT-4" target="UVg8xwLe7CxSn3VC2-VT-30" edge="1">
          <mxGeometry relative="1" as="geometry">
            <Array as="points">
              <mxPoint x="-1675" y="247.5" />
              <mxPoint x="-1600" y="247.5" />
            </Array>
          </mxGeometry>
        </mxCell>
        <mxCell id="UVg8xwLe7CxSn3VC2-VT-4" value="Add pdf file" style="html=1;dashed=0;whiteSpace=wrap;fillColor=#d5e8d4;strokeColor=#82b366;" parent="1" vertex="1">
          <mxGeometry x="-1725" y="286.25" width="100" height="50" as="geometry" />
        </mxCell>
        <mxCell id="UVg8xwLe7CxSn3VC2-VT-8" value="Notify when others approve?" style="html=1;dashed=0;whiteSpace=wrap;fillColor=#d5e8d4;strokeColor=#82b366;" parent="1" vertex="1">
          <mxGeometry x="-1360" y="170" width="100" height="50" as="geometry" />
        </mxCell>
        <mxCell id="UVg8xwLe7CxSn3VC2-VT-43" value="" style="edgeStyle=orthogonalEdgeStyle;rounded=0;orthogonalLoop=1;jettySize=auto;html=1;" parent="1" source="UVg8xwLe7CxSn3VC2-VT-9" target="UVg8xwLe7CxSn3VC2-VT-42" edge="1">
          <mxGeometry relative="1" as="geometry" />
        </mxCell>
        <mxCell id="UVg8xwLe7CxSn3VC2-VT-9" value="To send reminders?" style="html=1;dashed=0;whiteSpace=wrap;fillColor=#d5e8d4;strokeColor=#82b366;" parent="1" vertex="1">
          <mxGeometry x="-1250" y="170" width="100" height="50" as="geometry" />
        </mxCell>
        <mxCell id="UVg8xwLe7CxSn3VC2-VT-34" style="edgeStyle=orthogonalEdgeStyle;rounded=0;orthogonalLoop=1;jettySize=auto;html=1;entryX=0.5;entryY=1;entryDx=0;entryDy=0;exitX=0.5;exitY=0;exitDx=0;exitDy=0;" parent="1" source="UVg8xwLe7CxSn3VC2-VT-55" target="UVg8xwLe7CxSn3VC2-VT-25" edge="1">
          <mxGeometry relative="1" as="geometry">
            <mxPoint x="-1500" y="494.5" as="sourcePoint" />
            <Array as="points">
              <mxPoint x="-1010" y="467.5" />
              <mxPoint x="-846" y="467.5" />
            </Array>
          </mxGeometry>
        </mxCell>
        <mxCell id="UVg8xwLe7CxSn3VC2-VT-36" value="" style="edgeStyle=orthogonalEdgeStyle;rounded=0;orthogonalLoop=1;jettySize=auto;html=1;exitX=0.5;exitY=0;exitDx=0;exitDy=0;" parent="1" source="UVg8xwLe7CxSn3VC2-VT-11" target="UVg8xwLe7CxSn3VC2-VT-35" edge="1">
          <mxGeometry relative="1" as="geometry">
            <mxPoint x="-1150" y="407.5" as="sourcePoint" />
          </mxGeometry>
        </mxCell>
        <mxCell id="UVg8xwLe7CxSn3VC2-VT-40" style="edgeStyle=orthogonalEdgeStyle;rounded=0;orthogonalLoop=1;jettySize=auto;html=1;entryX=0.5;entryY=1;entryDx=0;entryDy=0;exitX=0.5;exitY=0;exitDx=0;exitDy=0;" parent="1" source="UVg8xwLe7CxSn3VC2-VT-11" target="UVg8xwLe7CxSn3VC2-VT-33" edge="1">
          <mxGeometry relative="1" as="geometry">
            <mxPoint x="-1040" y="427.5" as="sourcePoint" />
            <Array as="points">
              <mxPoint x="-1310" y="367.5" />
              <mxPoint x="-1160" y="367.5" />
            </Array>
          </mxGeometry>
        </mxCell>
        <mxCell id="UVg8xwLe7CxSn3VC2-VT-11" value="Settings" style="html=1;dashed=0;whiteSpace=wrap;fillColor=#d5e8d4;strokeColor=#82b366;" parent="1" vertex="1">
          <mxGeometry x="-1360" y="379" width="100" height="52.5" as="geometry" />
        </mxCell>
        <mxCell id="UVg8xwLe7CxSn3VC2-VT-15" value="Notify when others approve?" style="html=1;dashed=0;whiteSpace=wrap;fillColor=#ffe6cc;strokeColor=#d79b00;" parent="1" vertex="1">
          <mxGeometry x="-2120" y="167.5" width="100" height="50" as="geometry" />
        </mxCell>
        <mxCell id="UVg8xwLe7CxSn3VC2-VT-16" value="Send reminders every x hours" style="html=1;dashed=0;whiteSpace=wrap;fillColor=#ffe6cc;strokeColor=#d79b00;" parent="1" vertex="1">
          <mxGeometry x="-1980" y="70" width="100" height="50" as="geometry" />
        </mxCell>
        <mxCell id="UVg8xwLe7CxSn3VC2-VT-24" value="" style="edgeStyle=orthogonalEdgeStyle;rounded=0;orthogonalLoop=1;jettySize=auto;html=1;" parent="1" source="UVg8xwLe7CxSn3VC2-VT-17" target="UVg8xwLe7CxSn3VC2-VT-16" edge="1">
          <mxGeometry relative="1" as="geometry" />
        </mxCell>
        <mxCell id="UVg8xwLe7CxSn3VC2-VT-17" value="To send reminders?" style="html=1;dashed=0;whiteSpace=wrap;fillColor=#ffe6cc;strokeColor=#d79b00;" parent="1" vertex="1">
          <mxGeometry x="-1980" y="167.5" width="100" height="50" as="geometry" />
        </mxCell>
        <mxCell id="UVg8xwLe7CxSn3VC2-VT-68" value="" style="edgeStyle=orthogonalEdgeStyle;rounded=0;orthogonalLoop=1;jettySize=auto;html=1;" parent="1" source="UVg8xwLe7CxSn3VC2-VT-20" target="UVg8xwLe7CxSn3VC2-VT-67" edge="1">
          <mxGeometry relative="1" as="geometry" />
        </mxCell>
        <mxCell id="UVg8xwLe7CxSn3VC2-VT-20" value="Name, email, approve/review,&amp;nbsp;" style="html=1;dashed=0;whiteSpace=wrap;fillColor=#d5e8d4;strokeColor=#82b366;" parent="1" vertex="1">
          <mxGeometry x="-2250" y="167.5" width="100" height="50" as="geometry" />
        </mxCell>
        <mxCell id="UVg8xwLe7CxSn3VC2-VT-25" value="Approve/Deny notes" style="html=1;dashed=0;whiteSpace=wrap;fillColor=#d5e8d4;strokeColor=#82b366;" parent="1" vertex="1">
          <mxGeometry x="-896" y="371.5" width="100" height="50" as="geometry" />
        </mxCell>
        <mxCell id="UVg8xwLe7CxSn3VC2-VT-28" value="Add multiple files" style="html=1;dashed=0;whiteSpace=wrap;fillColor=#ffe6cc;strokeColor=#d79b00;" parent="1" vertex="1">
          <mxGeometry x="-1800" y="167.5" width="100" height="50" as="geometry" />
        </mxCell>
        <mxCell id="UVg8xwLe7CxSn3VC2-VT-30" value="Add word, excel, images other file format" style="html=1;dashed=0;whiteSpace=wrap;fillColor=#ffe6cc;strokeColor=#d79b00;" parent="1" vertex="1">
          <mxGeometry x="-1650" y="167.5" width="100" height="50" as="geometry" />
        </mxCell>
        <mxCell id="UVg8xwLe7CxSn3VC2-VT-62" style="edgeStyle=orthogonalEdgeStyle;rounded=0;orthogonalLoop=1;jettySize=auto;html=1;entryX=0.5;entryY=0;entryDx=0;entryDy=0;strokeColor=#4C0099;exitX=1;exitY=0.5;exitDx=0;exitDy=0;" parent="1" source="UVg8xwLe7CxSn3VC2-VT-33" target="UVg8xwLe7CxSn3VC2-VT-60" edge="1">
          <mxGeometry relative="1" as="geometry">
            <mxPoint x="-1220" y="313.5" as="sourcePoint" />
            <Array as="points">
              <mxPoint x="-1010" y="311.5" />
            </Array>
          </mxGeometry>
        </mxCell>
        <mxCell id="UVg8xwLe7CxSn3VC2-VT-33" value="Visual approval flow" style="html=1;dashed=0;whiteSpace=wrap;fillColor=#d5e8d4;strokeColor=#82b366;" parent="1" vertex="1">
          <mxGeometry x="-1210" y="286.25" width="100" height="50" as="geometry" />
        </mxCell>
        <mxCell id="UVg8xwLe7CxSn3VC2-VT-37" value="" style="edgeStyle=orthogonalEdgeStyle;rounded=0;orthogonalLoop=1;jettySize=auto;html=1;" parent="1" source="UVg8xwLe7CxSn3VC2-VT-35" target="UVg8xwLe7CxSn3VC2-VT-8" edge="1">
          <mxGeometry relative="1" as="geometry" />
        </mxCell>
        <mxCell id="UVg8xwLe7CxSn3VC2-VT-39" style="edgeStyle=orthogonalEdgeStyle;rounded=0;orthogonalLoop=1;jettySize=auto;html=1;entryX=0.5;entryY=1;entryDx=0;entryDy=0;" parent="1" source="UVg8xwLe7CxSn3VC2-VT-35" target="UVg8xwLe7CxSn3VC2-VT-9" edge="1">
          <mxGeometry relative="1" as="geometry">
            <Array as="points">
              <mxPoint x="-1310" y="263" />
              <mxPoint x="-1200" y="263" />
            </Array>
          </mxGeometry>
        </mxCell>
        <mxCell id="UVg8xwLe7CxSn3VC2-VT-35" value="General notification settings" style="html=1;dashed=0;whiteSpace=wrap;fillColor=#d5e8d4;strokeColor=#82b366;" parent="1" vertex="1">
          <mxGeometry x="-1360" y="288" width="100" height="50" as="geometry" />
        </mxCell>
        <mxCell id="UVg8xwLe7CxSn3VC2-VT-42" value="Send reminders every x hours" style="html=1;dashed=0;whiteSpace=wrap;fillColor=#ffe6cc;strokeColor=#d79b00;" parent="1" vertex="1">
          <mxGeometry x="-1250" y="70" width="100" height="50" as="geometry" />
        </mxCell>
        <mxCell id="UVg8xwLe7CxSn3VC2-VT-47" value="Admin UI" style="html=1;dashed=0;whiteSpace=wrap;fillColor=#d5e8d4;strokeColor=#82b366;" parent="1" vertex="1">
          <mxGeometry x="-1725" y="487.5" width="100" height="50" as="geometry" />
        </mxCell>
        <mxCell id="UVg8xwLe7CxSn3VC2-VT-54" value="" style="edgeStyle=orthogonalEdgeStyle;rounded=0;orthogonalLoop=1;jettySize=auto;html=1;" parent="1" source="UVg8xwLe7CxSn3VC2-VT-52" target="UVg8xwLe7CxSn3VC2-VT-47" edge="1">
          <mxGeometry relative="1" as="geometry">
            <Array as="points">
              <mxPoint x="-1345" y="567.5" />
              <mxPoint x="-1675" y="567.5" />
            </Array>
          </mxGeometry>
        </mxCell>
        <mxCell id="UVg8xwLe7CxSn3VC2-VT-56" style="edgeStyle=orthogonalEdgeStyle;rounded=0;orthogonalLoop=1;jettySize=auto;html=1;entryX=0.5;entryY=1;entryDx=0;entryDy=0;" parent="1" source="UVg8xwLe7CxSn3VC2-VT-52" target="UVg8xwLe7CxSn3VC2-VT-55" edge="1">
          <mxGeometry relative="1" as="geometry">
            <mxPoint x="-800" y="557.5" as="targetPoint" />
            <Array as="points">
              <mxPoint x="-1345" y="567.5" />
              <mxPoint x="-1010" y="567.5" />
            </Array>
          </mxGeometry>
        </mxCell>
        <mxCell id="UVg8xwLe7CxSn3VC2-VT-52" value="Login/Signup" style="html=1;dashed=0;whiteSpace=wrap;fillColor=#d5e8d4;strokeColor=#82b366;" parent="1" vertex="1">
          <mxGeometry x="-1395" y="587.5" width="100" height="50" as="geometry" />
        </mxCell>
        <mxCell id="UVg8xwLe7CxSn3VC2-VT-61" value="" style="edgeStyle=orthogonalEdgeStyle;rounded=0;orthogonalLoop=1;jettySize=auto;html=1;" parent="1" source="UVg8xwLe7CxSn3VC2-VT-55" target="UVg8xwLe7CxSn3VC2-VT-60" edge="1">
          <mxGeometry relative="1" as="geometry" />
        </mxCell>
        <mxCell id="UVg8xwLe7CxSn3VC2-VT-55" value="Approver /Reviewer UI" style="html=1;dashed=0;whiteSpace=wrap;fillColor=#d5e8d4;strokeColor=#82b366;" parent="1" vertex="1">
          <mxGeometry x="-1060" y="487.5" width="100" height="50" as="geometry" />
        </mxCell>
        <mxCell id="UVg8xwLe7CxSn3VC2-VT-60" value="Visual approval flow" style="html=1;dashed=0;whiteSpace=wrap;fillColor=#e1d5e7;strokeColor=#9673a6;" parent="1" vertex="1">
          <mxGeometry x="-1060" y="371.5" width="100" height="50" as="geometry" />
        </mxCell>
        <mxCell id="UVg8xwLe7CxSn3VC2-VT-67" value="Does reviewer pause the flow?" style="html=1;dashed=0;whiteSpace=wrap;fillColor=#ffe6cc;strokeColor=#d79b00;" parent="1" vertex="1">
          <mxGeometry x="-2250" y="70" width="100" height="50" as="geometry" />
        </mxCell>
      </root>
    </mxGraphModel>
  </diagram>
</mxfile>
